<svg width="32" height="32" viewBox="0 0 32 32" fill="none" xmlns="http://www.w3.org/2000/svg">
<path d="M19.7105 21.5049C19.4223 21.4896 19.1505 21.3659 18.9507 21.1572C18.7484 20.9459 18.6353 20.6646 18.6353 20.3721C18.6353 20.0795 18.7484 19.7982 18.9507 19.5869C19.1485 19.3803 19.4167 19.2566 19.7017 19.2393H27.853L24.9575 16.626C21.1985 13.2325 18.0245 11.3015 14.4302 11.9033C12.6883 12.195 11.0112 13.0596 9.27004 14.333C7.52905 15.6063 5.63173 17.359 3.4507 19.54L3.44387 19.5459L3.43801 19.5518C3.33355 19.6586 3.20934 19.7444 3.0718 19.8027C2.93414 19.8611 2.78577 19.8908 2.63625 19.8916C2.48693 19.8924 2.33885 19.8643 2.2007 19.8076C2.06239 19.7508 1.93631 19.6663 1.83058 19.5605C1.72501 19.4549 1.64128 19.3296 1.58449 19.1914C1.52766 19.0531 1.49868 18.9044 1.49953 18.7549C1.50043 18.6055 1.53104 18.4578 1.58937 18.3203C1.64776 18.1827 1.73249 18.0576 1.83937 17.9531L1.84621 17.9473L1.85207 17.9414C7.20965 12.5838 11.3751 9.50109 15.73 9.50098C18.9416 9.50098 22.0915 11.2098 25.7652 14.3467L28.2388 16.459V10.6562C28.2388 10.5078 28.268 10.3607 28.3247 10.2236C28.3815 10.0865 28.4649 9.96141 28.5698 9.85645C28.6748 9.75157 28.8 9.6681 28.937 9.61133C29.0739 9.55473 29.2206 9.52545 29.3687 9.52539C29.5169 9.52539 29.6643 9.55466 29.8013 9.61133C29.9384 9.66811 30.0635 9.75155 30.1685 9.85645C30.2734 9.96141 30.3568 10.0865 30.4136 10.2236C30.4704 10.3607 30.4995 10.5079 30.4995 10.6562V20.3721C30.4998 20.5207 30.4712 20.6683 30.4146 20.8057C30.3579 20.943 30.2743 21.0677 30.1695 21.1729C30.0645 21.278 29.9395 21.362 29.8023 21.4189C29.665 21.4759 29.5173 21.5049 29.3687 21.5049H19.7105Z" fill="url(#paint0_linear_6_3769)"/>
<defs>
<linearGradient id="paint0_linear_6_3769" x1="1.49481" y1="23.4738" x2="30.4148" y2="25.0393" gradientUnits="userSpaceOnUse">
<stop stop-color="white" stop-opacity="0.4"/>
<stop offset="1" stop-color="white"/>
</linearGradient>
</defs>
</svg>
