<svg width="32" height="32" viewBox="0 0 32 32" fill="none" xmlns="http://www.w3.org/2000/svg">
<path d="M15.9963 4.01072C14.6092 4.01072 13.3455 4.21182 12.1895 4.52508C11.6878 4.64071 11.3775 5.13014 11.4964 5.6181C11.6153 6.10617 12.1183 6.40802 12.62 6.29239C12.6433 6.28705 12.6663 6.28087 12.6891 6.27375C13.7059 5.99819 14.7932 5.82684 15.9963 5.82684C24.1375 5.82684 27.7367 13.0168 28.033 13.5913C28.1657 13.8488 28.1657 14.1463 28.033 14.4037C27.906 14.6501 27.073 16.289 25.3876 18.0359C25.0176 18.3852 25.0087 18.9601 25.3678 19.3201C25.7268 19.6799 26.3179 19.6886 26.6879 19.3393C26.7088 19.3195 26.7287 19.2989 26.7477 19.2773C28.6261 17.3305 29.5993 15.4206 29.7031 15.2194C30.099 14.4517 30.099 13.5433 29.7031 12.7755C29.4987 12.3794 25.28 4.01072 15.9963 4.01072Z" fill="url(#paint0_linear_6_3765)"/>
<path d="M6.65254 4.00003C6.13695 4.00111 5.71988 4.40857 5.72099 4.91012C5.72153 5.15544 5.82409 5.39012 6.00531 5.56073L7.35994 6.87846C4.03761 9.33035 2.42965 12.5181 2.29695 12.7754C1.90102 13.5432 1.90102 14.4517 2.29695 15.2194C2.49799 15.6092 6.71274 23.9841 15.9964 23.9841C18.7983 23.9841 21.1473 23.2131 23.0521 22.1432L24.6729 23.7199C25.0305 24.0826 25.6228 24.0947 25.9957 23.7468C26.3686 23.3989 26.3809 22.8228 26.0233 22.4601C26.014 22.4506 26.0045 22.4413 25.9947 22.4323L7.32894 4.27492C7.15144 4.09741 6.90711 3.99811 6.65254 4.00003ZM8.70363 8.18555L10.7729 10.1985C9.93403 11.2897 9.46685 12.6189 9.46572 13.9974C9.46572 17.4972 12.4023 20.3537 16 20.3537C17.4171 20.3526 18.7835 19.8982 19.9053 19.0821L21.6774 20.806C20.1038 21.6147 18.2378 22.168 15.9964 22.168C7.85519 22.168 4.26651 14.9843 3.96699 14.4035C3.8343 14.1461 3.8343 13.8486 3.96699 13.5913C4.14276 13.2504 5.65244 10.3503 8.70363 8.18555ZM12.1093 11.4985L18.5689 17.7821C17.812 18.2692 16.9215 18.5369 16 18.5376C13.4112 18.5376 11.3327 16.5156 11.3327 13.9974C11.3334 13.1011 11.6085 12.2347 12.1093 11.4985Z" fill="url(#paint1_linear_6_3765)"/>
<path d="M15.7466 9.46762C15.8373 9.46071 15.922 9.45736 16 9.45736C18.5885 9.45673 20.669 11.48 20.6674 13.9976C20.6673 14.0576 20.6619 14.1352 20.6546 14.2299C20.562 15.4383 22.4253 15.5732 22.5179 14.3648C22.526 14.2597 22.5342 14.1376 22.5343 13.9977C22.5366 10.4973 19.598 7.64051 16 7.64135C15.87 7.64135 15.7469 7.64826 15.6299 7.65507C14.3686 7.7155 14.4875 9.5621 15.7466 9.46762Z" fill="url(#paint2_linear_6_3765)"/>
<defs>
<linearGradient id="paint0_linear_6_3765" x1="30.0045" y1="0.719576" x2="2.02753" y2="-0.158083" gradientUnits="userSpaceOnUse">
<stop stop-color="white"/>
<stop offset="1" stop-color="white" stop-opacity="0.4"/>
</linearGradient>
<linearGradient id="paint1_linear_6_3765" x1="30.0045" y1="0.719576" x2="2.02753" y2="-0.158083" gradientUnits="userSpaceOnUse">
<stop stop-color="white"/>
<stop offset="1" stop-color="white" stop-opacity="0.4"/>
</linearGradient>
<linearGradient id="paint2_linear_6_3765" x1="30.0045" y1="0.719576" x2="2.02753" y2="-0.158083" gradientUnits="userSpaceOnUse">
<stop stop-color="white"/>
<stop offset="1" stop-color="white" stop-opacity="0.4"/>
</linearGradient>
</defs>
</svg>
