<svg width="32" height="32" viewBox="0 0 32 32" fill="none" xmlns="http://www.w3.org/2000/svg">
<path d="M19.4762 2.42529C20.9728 2.42536 22.378 3.01065 23.441 4.06856L28.3567 8.98779C29.4181 10.0447 30 11.4544 30 12.9526V19.9032C29.9999 21.4013 29.418 22.8104 28.3567 23.8672L23.441 28.782C22.384 29.8432 20.9746 30.4252 19.4762 30.4253H12.5238C11.0268 30.4252 9.62122 29.8396 8.55809 28.7811L3.64327 23.8628L3.4501 23.6599C2.51172 22.6288 2 21.3025 2 19.8979V12.9473C2.00006 11.4497 2.58182 10.0447 3.64415 8.9825L8.55897 4.06856C9.61599 3.0074 11.0254 2.42536 12.5238 2.42529H19.4762ZM12.5238 4.31907C11.5324 4.31913 10.5971 4.70691 9.89705 5.40664L4.98223 10.3206C4.28222 11.0205 3.89472 11.9559 3.89466 12.9473V19.8979C3.89466 20.8896 4.28211 21.8256 4.98223 22.5256L9.89705 27.4431C10.5971 28.1428 11.5324 28.5315 12.5238 28.5315H19.4762C20.4676 28.5315 21.4029 28.1437 22.1029 27.4439L27.0178 22.53C27.7178 21.8301 28.1053 20.8947 28.1053 19.9032V12.9526C28.1053 11.961 27.7179 11.025 27.0178 10.325L22.1029 5.40753C21.4029 4.7078 20.4676 4.31913 19.4762 4.31907H12.5238ZM21.5384 15.478C22.0584 15.478 22.4858 15.9056 22.4858 16.4253C22.4858 16.945 22.0584 17.3726 21.5384 17.3726H10.466C9.94601 17.3726 9.51865 16.945 9.51865 16.4253C9.51865 15.9056 9.946 15.478 10.466 15.478H21.5384Z" fill="url(#paint0_linear_6_3761)"/>
<defs>
<linearGradient id="paint0_linear_6_3761" x1="30.4563" y1="-2.76706" x2="1.5629" y2="-3.4145" gradientUnits="userSpaceOnUse">
<stop stop-color="white"/>
<stop offset="1" stop-color="white" stop-opacity="0.4"/>
</linearGradient>
</defs>
</svg>
