<svg width="28" height="35" viewBox="0 0 28 35" fill="none" xmlns="http://www.w3.org/2000/svg">
<g filter="url(#filter0_d_6_4339)">
<path d="M19 12.1619C19.5521 12.1619 19.9997 12.5014 20 12.9207V16.241H23.2549C23.6661 16.241 23.9999 16.698 24 17.2615C24 17.825 23.6662 18.282 23.2549 18.282H20V21.6023C19.9998 22.0216 19.5521 22.3611 19 22.3611C18.4479 22.3611 18.0002 22.0216 18 21.6023V18.282H14.7451C14.3338 18.282 14 17.825 14 17.2615C14.0001 16.698 14.3339 16.241 14.7451 16.241H18V12.9207C18.0003 12.5014 18.4479 12.1619 19 12.1619Z" fill="white"/>
<path d="M19 12.1619C19.5521 12.1619 19.9997 12.5014 20 12.9207V16.241H23.2549C23.6661 16.241 23.9999 16.698 24 17.2615C24 17.825 23.6662 18.282 23.2549 18.282H20V21.6023C19.9998 22.0216 19.5521 22.3611 19 22.3611C18.4479 22.3611 18.0002 22.0216 18 21.6023V18.282H14.7451C14.3338 18.282 14 17.825 14 17.2615C14.0001 16.698 14.3339 16.241 14.7451 16.241H18V12.9207C18.0003 12.5014 18.4479 12.1619 19 12.1619Z" fill="url(#paint0_linear_6_4339)" fill-opacity="0.5"/>
<path d="M7 24.4021C7.55202 24.4021 7.99956 24.6056 8 24.8572V26.4412H9.55273C9.79948 26.4412 9.99997 26.8982 10 27.4617C10 28.0252 9.7995 28.4822 9.55273 28.4822H8V30.0662C7.99987 30.3178 7.55221 30.5222 7 30.5222C6.44779 30.5222 6.00013 30.3178 6 30.0662V28.4822H4.44727C4.2005 28.4822 4 28.0252 4 27.4617C4.00003 26.8982 4.20052 26.4412 4.44727 26.4412H6V24.8572C6.00044 24.6056 6.44798 24.4021 7 24.4021Z" fill="white"/>
<path d="M7 24.4021C7.55202 24.4021 7.99956 24.6056 8 24.8572V26.4412H9.55273C9.79948 26.4412 9.99997 26.8982 10 27.4617C10 28.0252 9.7995 28.4822 9.55273 28.4822H8V30.0662C7.99987 30.3178 7.55221 30.5222 7 30.5222C6.44779 30.5222 6.00013 30.3178 6 30.0662V28.4822H4.44727C4.2005 28.4822 4 28.0252 4 27.4617C4.00003 26.8982 4.20052 26.4412 4.44727 26.4412H6V24.8572C6.00044 24.6056 6.44798 24.4021 7 24.4021Z" fill="url(#paint1_linear_6_4339)" fill-opacity="0.5"/>
<path d="M7 4C7.55228 4 8 4.20435 8 4.45605V6.04004H9.55273C9.79944 6.04004 9.9999 6.49621 10 7.05957C10 7.62313 9.7995 8.08008 9.55273 8.08008H8V9.66406C8 9.91576 7.55228 10.1201 7 10.1201C6.44772 10.1201 6 9.91576 6 9.66406V8.08008H4.44727C4.2005 8.08008 4 7.62313 4 7.05957C4.0001 6.49621 4.20056 6.04004 4.44727 6.04004H6V4.45605C6 4.20435 6.44772 4 7 4Z" fill="white"/>
<path d="M7 4C7.55228 4 8 4.20435 8 4.45605V6.04004H9.55273C9.79944 6.04004 9.9999 6.49621 10 7.05957C10 7.62313 9.7995 8.08008 9.55273 8.08008H8V9.66406C8 9.91576 7.55228 10.1201 7 10.1201C6.44772 10.1201 6 9.91576 6 9.66406V8.08008H4.44727C4.2005 8.08008 4 7.62313 4 7.05957C4.0001 6.49621 4.20056 6.04004 4.44727 6.04004H6V4.45605C6 4.20435 6.44772 4 7 4Z" fill="url(#paint2_linear_6_4339)" fill-opacity="0.5"/>
</g>
<defs>
<filter id="filter0_d_6_4339" x="0" y="0" width="28" height="34.5222" filterUnits="userSpaceOnUse" color-interpolation-filters="sRGB">
<feFlood flood-opacity="0" result="BackgroundImageFix"/>
<feColorMatrix in="SourceAlpha" type="matrix" values="0 0 0 0 0 0 0 0 0 0 0 0 0 0 0 0 0 0 127 0" result="hardAlpha"/>
<feOffset/>
<feGaussianBlur stdDeviation="2"/>
<feComposite in2="hardAlpha" operator="out"/>
<feColorMatrix type="matrix" values="0 0 0 0 0.860165 0 0 0 0 0.743636 0 0 0 0 1 0 0 0 0.6 0"/>
<feBlend mode="normal" in2="BackgroundImageFix" result="effect1_dropShadow_6_4339"/>
<feBlend mode="normal" in="SourceGraphic" in2="effect1_dropShadow_6_4339" result="shape"/>
</filter>
<linearGradient id="paint0_linear_6_4339" x1="20.1389" y1="18.493" x2="20.1421" y2="15.9859" gradientUnits="userSpaceOnUse">
<stop stop-color="#AF40FF"/>
<stop offset="1" stop-color="#6516BE"/>
</linearGradient>
<linearGradient id="paint1_linear_6_4339" x1="7.68333" y1="28.2011" x2="7.68525" y2="26.6967" gradientUnits="userSpaceOnUse">
<stop stop-color="#AF40FF"/>
<stop offset="1" stop-color="#6516BE"/>
</linearGradient>
<linearGradient id="paint2_linear_6_4339" x1="7.68333" y1="7.79903" x2="7.68525" y2="6.29463" gradientUnits="userSpaceOnUse">
<stop stop-color="#AF40FF"/>
<stop offset="1" stop-color="#6516BE"/>
</linearGradient>
</defs>
</svg>
