<svg width="36" height="36" viewBox="0 0 36 36" fill="none" xmlns="http://www.w3.org/2000/svg">
<path d="M23.2449 10.75H23.2561M5.125 28.875L11.375 22.625M12.625 28.875L15.125 26.375M5.125 21.375L7.625 18.875M18.6086 8.2549L16.7516 10.1119C15.2224 11.6411 14.7876 12.0759 13.1287 11.7549C11.8616 11.4381 10.6346 11.1314 9.71322 12.0527C8.59558 13.1704 8.59561 14.1898 9.71322 15.3075L18.6925 24.2868C19.8102 25.4044 20.8296 25.4044 21.9473 24.2868C22.8686 23.3654 22.5619 22.1384 22.2451 20.8713C21.9241 19.2124 22.3589 18.7776 23.8881 17.2484L25.7451 15.3914C27.836 13.3005 28.7033 10.5631 28.845 7.66611C28.9001 6.53929 28.9277 5.97588 28.4759 5.52409C28.0241 5.07231 27.4607 5.09987 26.3339 5.15499C23.4369 5.29671 20.6995 6.164 18.6086 8.2549Z" stroke="url(#paint0_linear_6_4131)" stroke-width="2" stroke-linecap="round"/>
<defs>
<linearGradient id="paint0_linear_6_4131" x1="30.1253" y1="18.4114" x2="5.09724" y2="17.8506" gradientUnits="userSpaceOnUse">
<stop stop-color="white"/>
<stop offset="1" stop-color="white" stop-opacity="0.4"/>
</linearGradient>
</defs>
</svg>
